<?xml version="1.0" encoding="iso-8859-1"?><svg version="1.1" id="Ebene_1" xmlns="http://www.w3.org/2000/svg" x="0px" y="0px" width="142px" height="52px" viewBox="0 0 142 52" style="enable-background:new 0 0 142 52" xml:space="preserve"><g><path style="fill:none" d="M114.799,35c-0.197-0.236-0.433-0.426-0.707-0.569c-0.275-0.145-0.579-0.218-0.912-0.218 c-0.245,0-0.475,0.045-0.694,0.132c-0.218,0.088-0.421,0.204-0.609,0.348c-0.189,0.145-0.354,0.313-0.498,0.504 c-0.145,0.193-0.27,0.397-0.375,0.617v1.978c0.046,0.22,0.139,0.42,0.284,0.603c0.145,0.185,0.314,0.344,0.51,0.479 c0.197,0.136,0.407,0.243,0.63,0.32c0.222,0.08,0.439,0.118,0.647,0.118c0.342,0,0.656-0.07,0.943-0.21 c0.289-0.141,0.538-0.327,0.749-0.563c0.208-0.234,0.37-0.504,0.484-0.805c0.113-0.303,0.17-0.619,0.17-0.95 c0-0.334-0.055-0.654-0.164-0.964S114.995,35.236,114.799,35z"/><path style="fill:none" d="M111.489,48.501h-2.133v1.751h2.054c0.241,0,0.441-0.079,0.6-0.237c0.157-0.158,0.235-0.363,0.235-0.62 c0-0.249-0.07-0.461-0.214-0.633C111.889,48.589,111.708,48.501,111.489,48.501z"/><path style="fill:none" d="M106.495,34.955c-0.21-0.232-0.451-0.413-0.727-0.544c-0.275-0.132-0.569-0.198-0.886-0.198 c-0.314,0-0.609,0.069-0.884,0.204c-0.275,0.136-0.516,0.318-0.721,0.551c-0.206,0.23-0.367,0.502-0.486,0.811 c-0.117,0.313-0.176,0.646-0.176,1.005c0,0.356,0.059,0.69,0.176,0.995c0.119,0.306,0.28,0.572,0.486,0.8 c0.205,0.227,0.445,0.406,0.721,0.538c0.274,0.129,0.569,0.195,0.884,0.195c0.316,0,0.61-0.066,0.886-0.195 c0.275-0.132,0.517-0.314,0.727-0.545c0.209-0.231,0.375-0.502,0.493-0.812c0.116-0.311,0.176-0.646,0.176-1.003 c0-0.35-0.06-0.679-0.176-0.991C106.87,35.456,106.704,35.186,106.495,34.955z"/><path style="fill:none" d="M111.716,46.841c0.158-0.135,0.236-0.345,0.236-0.631c0-0.264-0.069-0.468-0.208-0.61 c-0.14-0.144-0.307-0.214-0.504-0.214h-1.884v1.659h1.817C111.376,47.045,111.557,46.977,111.716,46.841z"/><polygon style="fill:none" points="84.604,48.75 86.501,48.75 85.563,45.917"/><path style="fill:none" d="M12.061,36.517c-0.479-0.555-1.067-0.98-1.766-1.277c-0.698-0.297-1.486-0.445-2.364-0.445H4.908 v12.538H7.93c0.898,0,1.696-0.158,2.395-0.475c0.698-0.316,1.281-0.759,1.75-1.322c0.469-0.565,0.828-1.227,1.078-1.991 c0.249-0.761,0.374-1.6,0.374-2.51c0-0.932-0.125-1.778-0.374-2.54C12.903,37.73,12.54,37.071,12.061,36.517z"/><path style="fill:none" d="M36.093,36.65c-0.479-0.584-1.063-1.049-1.752-1.396c-0.688-0.345-1.48-0.521-2.378-0.521 c-0.938,0-1.751,0.185-2.439,0.55c-0.688,0.368-1.267,0.849-1.736,1.442c-0.469,0.594-0.819,1.272-1.048,2.036 c-0.23,0.762-0.344,1.54-0.344,2.331c0,0.813,0.119,1.601,0.359,2.361c0.239,0.764,0.593,1.442,1.063,2.036 c0.468,0.594,1.052,1.07,1.75,1.426c0.699,0.357,1.497,0.535,2.395,0.535c0.938,0,1.755-0.188,2.453-0.564 c0.699-0.377,1.278-0.866,1.736-1.47c0.459-0.605,0.803-1.289,1.033-2.051c0.23-0.764,0.344-1.54,0.344-2.332 c0-0.813-0.119-1.601-0.359-2.362C36.93,37.908,36.571,37.236,36.093,36.65z"/><path style="fill:none" d="M129.636,45.43h-1.638v2.191h1.693c0.219,0,0.407-0.104,0.564-0.311 c0.158-0.208,0.237-0.473,0.237-0.796c0-0.33-0.091-0.595-0.271-0.791C130.042,45.529,129.846,45.43,129.636,45.43z"/><path style="fill:none" d="M133.345,35.4c-0.136-0.275-0.308-0.51-0.512-0.702c-0.206-0.192-0.443-0.343-0.714-0.453 c-0.271-0.107-0.56-0.163-0.864-0.163c-0.309,0-0.597,0.056-0.867,0.163c-0.271,0.11-0.508,0.263-0.714,0.46 c-0.205,0.196-0.372,0.431-0.497,0.702c-0.127,0.271-0.204,0.567-0.23,0.89h4.64C133.56,35.975,133.479,35.675,133.345,35.4z"/><path style="fill:#065482" d="M15.847,33.816c-0.889-0.95-1.991-1.702-3.307-2.257c-1.317-0.555-2.854-0.832-4.61-0.832H0v21.095 h7.93c1.596,0,3.048-0.253,4.355-0.757c1.307-0.506,2.424-1.219,3.353-2.141c0.927-0.919,1.64-2.028,2.139-3.327 c0.5-1.297,0.749-2.748,0.749-4.352c0-1.447-0.224-2.808-0.673-4.087C17.403,35.882,16.734,34.768,15.847,33.816z M13.153,43.756 c-0.25,0.765-0.609,1.426-1.078,1.991c-0.469,0.563-1.053,1.006-1.75,1.322c-0.699,0.316-1.497,0.475-2.395,0.475H4.908V35.006 H7.93c0.878,0,1.666,0.148,2.364,0.445c0.699,0.297,1.288,0.723,1.766,1.277c0.479,0.555,0.843,1.214,1.093,1.978 c0.249,0.762,0.374,1.608,0.374,2.54C13.527,42.156,13.402,42.995,13.153,43.756z"/><path style="fill:#065482" d="M39.654,33.965c-0.918-1.01-2.026-1.821-3.323-2.435c-1.298-0.615-2.733-0.922-4.31-0.922 c-1.536,0-2.953,0.292-4.25,0.878c-1.297,0.584-2.419,1.365-3.367,2.346c-0.948,0.981-1.686,2.115-2.215,3.402 c-0.529,1.287-0.793,2.625-0.793,4.012c0,1.366,0.254,2.692,0.763,3.982c0.509,1.286,1.221,2.43,2.139,3.429 c0.918,1.003,2.025,1.808,3.322,2.423c1.297,0.613,2.734,0.92,4.311,0.92c1.536,0,2.952-0.297,4.25-0.891 c1.297-0.594,2.414-1.382,3.351-2.361c0.938-0.98,1.671-2.114,2.2-3.403c0.528-1.287,0.792-2.623,0.792-4.01 c0-1.327-0.25-2.634-0.748-3.923C41.279,36.126,40.571,34.977,39.654,33.965z M37.185,43.578c-0.229,0.762-0.574,1.445-1.033,2.051 c-0.458,0.604-1.038,1.093-1.736,1.47c-0.698,0.376-1.515,0.564-2.453,0.564c-0.898,0-1.696-0.178-2.395-0.535 c-0.699-0.355-1.282-0.832-1.75-1.426c-0.47-0.594-0.823-1.272-1.063-2.036c-0.24-0.761-0.359-1.549-0.359-2.361 c0-0.791,0.114-1.569,0.344-2.331c0.229-0.764,0.579-1.442,1.048-2.036c0.469-0.594,1.047-1.074,1.736-1.442 c0.688-0.365,1.5-0.55,2.439-0.55c0.898,0,1.69,0.176,2.378,0.521c0.689,0.348,1.273,0.813,1.752,1.396 c0.478,0.586,0.837,1.258,1.076,2.021c0.24,0.762,0.359,1.55,0.359,2.362C37.528,42.038,37.415,42.814,37.185,43.578z"/><polygon style="fill:#065482" points="56.715,39.758 51.209,30.728 45.881,30.728 45.881,51.822 50.79,51.822 50.79,39.195 55.398,47.269 58.032,47.269 62.64,39.195 62.64,46.915 67.549,46.915 67.549,30.728 62.252,30.728"/><polygon style="fill:#d4aa3c" points="62.64,51.61 62.64,51.61 67.549,51.61 67.549,51.61 67.549,46.703 62.64,46.703"/><path style="fill:#d4aa3c" d="M33.774,0C17.072,0,3.147,11.612,0,27.02h0.287C3.394,12.984,16.177,2.467,31.478,2.467 c15.3,0,28.084,10.517,31.192,24.552h4.878C64.401,11.612,50.476,0,33.774,0z"/><rect x="74.138" y="30.872" style="fill:#065482" width="1.179" height="9.304"/><path style="fill:#065482" d="M82.041,40.176h1.151v-4.113c0.158-0.533,0.422-0.968,0.794-1.305 c0.37-0.336,0.792-0.506,1.265-0.506c0.453,0,0.798,0.172,1.028,0.512c0.232,0.342,0.348,0.869,0.348,1.587v3.825h1.153v-4.088 c0-0.41-0.034-0.791-0.105-1.142c-0.069-0.348-0.183-0.651-0.34-0.91c-0.157-0.258-0.37-0.457-0.637-0.602 s-0.596-0.217-0.989-0.217c-1.127,0-1.996,0.555-2.608,1.664c-0.077-0.49-0.286-0.888-0.622-1.199 c-0.337-0.311-0.793-0.465-1.369-0.465c-0.56,0-1.063,0.138-1.508,0.412c-0.445,0.275-0.808,0.667-1.088,1.172v-1.466h-1.047v6.84 h1.152v-4.128c0.156-0.54,0.424-0.977,0.8-1.304c0.374-0.327,0.794-0.492,1.258-0.492c0.454,0,0.796,0.167,1.021,0.499 c0.229,0.331,0.343,0.864,0.343,1.6V40.176z"/><path style="fill:#065482" d="M98.842,40.176h1.153v-4.088c0-0.41-0.035-0.791-0.105-1.142c-0.069-0.348-0.183-0.651-0.34-0.91 c-0.157-0.258-0.37-0.457-0.637-0.602s-0.596-0.217-0.989-0.217c-1.127,0-1.996,0.555-2.608,1.664 c-0.078-0.49-0.286-0.888-0.622-1.199c-0.337-0.311-0.793-0.465-1.369-0.465c-0.56,0-1.063,0.138-1.508,0.412 c-0.445,0.275-0.809,0.667-1.088,1.172v-1.466h-1.047v6.84h1.152v-4.128c0.157-0.54,0.424-0.977,0.8-1.304s0.796-0.492,1.258-0.492 c0.453,0,0.796,0.167,1.021,0.499c0.228,0.331,0.342,0.864,0.342,1.6v3.825h1.153v-4.113c0.156-0.533,0.421-0.968,0.793-1.305 c0.37-0.336,0.792-0.506,1.265-0.506c0.454,0,0.798,0.172,1.028,0.512c0.232,0.342,0.348,0.869,0.348,1.587V40.176z"/><path style="fill:#065482" d="M108.344,36.77c0-0.481-0.085-0.935-0.257-1.362c-0.17-0.429-0.404-0.805-0.707-1.128 c-0.302-0.324-0.665-0.582-1.095-0.774c-0.428-0.19-0.896-0.287-1.402-0.287c-0.506,0-0.973,0.097-1.396,0.287 c-0.424,0.192-0.785,0.45-1.088,0.774c-0.302,0.323-0.536,0.699-0.708,1.128c-0.17,0.428-0.256,0.881-0.256,1.362 c0,0.472,0.084,0.921,0.25,1.349c0.165,0.429,0.399,0.805,0.701,1.127c0.303,0.324,0.664,0.583,1.088,0.774 c0.423,0.191,0.895,0.288,1.408,0.288c0.516,0,0.985-0.097,1.411-0.288c0.423-0.191,0.786-0.45,1.092-0.774 c0.308-0.322,0.543-0.698,0.71-1.127C108.261,37.69,108.344,37.241,108.344,36.77z M106.988,37.76 c-0.118,0.31-0.284,0.58-0.493,0.812c-0.21,0.23-0.451,0.413-0.727,0.545c-0.275,0.129-0.569,0.195-0.886,0.195 c-0.314,0-0.609-0.066-0.884-0.195c-0.275-0.132-0.516-0.312-0.721-0.538c-0.206-0.228-0.367-0.494-0.486-0.8 c-0.117-0.305-0.176-0.639-0.176-0.995c0-0.359,0.059-0.692,0.176-1.005c0.119-0.309,0.28-0.58,0.486-0.811 c0.205-0.232,0.445-0.415,0.721-0.551c0.274-0.135,0.569-0.204,0.884-0.204c0.316,0,0.61,0.066,0.886,0.198 c0.275,0.131,0.517,0.312,0.727,0.544c0.209,0.23,0.375,0.501,0.493,0.811c0.116,0.313,0.176,0.642,0.176,0.991 C107.164,37.114,107.104,37.449,106.988,37.76z"/><path style="fill:#065482" d="M116.385,35.451c-0.145-0.432-0.349-0.813-0.615-1.139c-0.268-0.327-0.588-0.592-0.964-0.794 c-0.376-0.2-0.8-0.301-1.271-0.301c-0.559,0-1.049,0.135-1.469,0.405c-0.419,0.271-0.771,0.629-1.063,1.075v-4.09h-1.152v9.567 h1.023v-1.283c0.252,0.419,0.598,0.759,1.034,1.021c0.437,0.262,0.923,0.394,1.457,0.394c0.453,0,0.879-0.095,1.276-0.281 c0.398-0.188,0.74-0.441,1.028-0.76c0.289-0.32,0.517-0.692,0.682-1.121s0.25-0.883,0.25-1.362 C116.602,36.327,116.528,35.884,116.385,35.451z M115.251,37.733c-0.114,0.301-0.276,0.57-0.484,0.805 c-0.211,0.236-0.46,0.423-0.749,0.563c-0.287,0.14-0.602,0.21-0.943,0.21c-0.208,0-0.426-0.038-0.647-0.118 c-0.223-0.077-0.433-0.185-0.63-0.32c-0.195-0.136-0.365-0.295-0.51-0.479c-0.146-0.183-0.238-0.383-0.284-0.603v-1.978 c0.105-0.22,0.23-0.424,0.375-0.617c0.144-0.191,0.309-0.359,0.498-0.504c0.188-0.144,0.392-0.26,0.609-0.348 c0.22-0.087,0.449-0.132,0.694-0.132c0.333,0,0.637,0.073,0.912,0.218c0.274,0.144,0.51,0.333,0.707,0.569 c0.196,0.236,0.349,0.51,0.458,0.819s0.164,0.63,0.164,0.964C115.421,37.114,115.364,37.431,115.251,37.733z"/><rect x="118.121" y="33.336" style="fill:#065482" width="1.152" height="6.84"/><rect x="118.121" y="30.608" style="fill:#065482" width="1.152" height="1.443"/><path style="fill:#065482" d="M123.534,39.175c-0.132,0.03-0.245,0.044-0.342,0.044c-0.243,0-0.435-0.07-0.57-0.215 c-0.135-0.144-0.202-0.343-0.202-0.597v-7.799h-1.154v8.218c0,0.456,0.129,0.809,0.387,1.063c0.258,0.253,0.61,0.38,1.056,0.38 c0.2,0,0.433-0.025,0.694-0.08c0.263-0.051,0.489-0.117,0.683-0.194l-0.186-0.932C123.788,39.105,123.665,39.145,123.534,39.175z"/><rect x="125.093" y="30.608" style="fill:#065482" width="1.153" height="1.443"/><rect x="125.093" y="33.336" style="fill:#065482" width="1.153" height="6.84"/><path style="fill:#065482" d="M132.925,38.774c-0.135,0.14-0.292,0.258-0.466,0.354c-0.175,0.095-0.361,0.173-0.563,0.229 c-0.201,0.058-0.407,0.086-0.615,0.086c-0.297,0-0.579-0.059-0.846-0.17c-0.267-0.114-0.506-0.271-0.716-0.474 c-0.209-0.2-0.378-0.44-0.51-0.72s-0.211-0.59-0.236-0.932h5.675c0.009-0.043,0.016-0.104,0.02-0.183 c0.005-0.079,0.006-0.166,0.006-0.263c0-0.453-0.079-0.893-0.242-1.315c-0.162-0.424-0.39-0.796-0.688-1.114 c-0.297-0.32-0.656-0.576-1.079-0.769c-0.425-0.19-0.895-0.287-1.408-0.287c-0.518,0-0.99,0.094-1.418,0.281 s-0.796,0.443-1.107,0.768c-0.31,0.323-0.551,0.699-0.721,1.127c-0.169,0.428-0.256,0.882-0.256,1.363 c0,0.48,0.087,0.936,0.256,1.368c0.17,0.434,0.409,0.811,0.714,1.136c0.306,0.322,0.674,0.578,1.102,0.766 c0.428,0.187,0.9,0.281,1.415,0.281c0.342,0,0.669-0.043,0.985-0.132c0.313-0.085,0.6-0.206,0.857-0.358 c0.258-0.151,0.483-0.335,0.682-0.544c0.196-0.211,0.351-0.443,0.465-0.695l-0.996-0.274 C133.162,38.478,133.061,38.635,132.925,38.774z M129.177,35.407c0.125-0.271,0.292-0.506,0.497-0.702 c0.206-0.197,0.442-0.35,0.714-0.46c0.271-0.107,0.559-0.163,0.867-0.163c0.305,0,0.593,0.056,0.864,0.163 c0.271,0.11,0.508,0.261,0.714,0.453c0.204,0.192,0.376,0.427,0.512,0.702c0.135,0.274,0.215,0.574,0.241,0.896h-4.64 C128.973,35.975,129.05,35.678,129.177,35.407z"/><path style="fill:#065482" d="M141.9,34.946c-0.063-0.348-0.176-0.651-0.333-0.91c-0.156-0.258-0.367-0.457-0.629-0.602 c-0.264-0.145-0.59-0.217-0.983-0.217c-0.603,0-1.159,0.144-1.671,0.432c-0.51,0.288-0.901,0.673-1.172,1.152v-1.466h-1.05v6.84 h1.154v-4.128c0.078-0.261,0.196-0.501,0.354-0.721c0.157-0.217,0.342-0.406,0.55-0.563c0.211-0.157,0.433-0.282,0.669-0.374 c0.237-0.091,0.472-0.138,0.707-0.138c0.454,0,0.795,0.167,1.016,0.499c0.224,0.331,0.336,0.864,0.336,1.6v3.825H142v-4.088 C142,35.678,141.968,35.297,141.9,34.946z"/><path style="fill:#d4aa3c" d="M79.551,47.84c-0.215-0.183-0.478-0.338-0.785-0.462s-0.655-0.239-1.038-0.344 c-0.277-0.076-0.523-0.143-0.735-0.204c-0.21-0.06-0.386-0.126-0.525-0.196c-0.139-0.072-0.243-0.153-0.315-0.244 c-0.07-0.091-0.108-0.202-0.108-0.337c0-0.446,0.333-0.667,0.996-0.667c0.239,0,0.48,0.033,0.723,0.101 c0.24,0.068,0.462,0.148,0.666,0.237c0.202,0.091,0.371,0.177,0.507,0.26c0.136,0.084,0.216,0.14,0.237,0.169l0.813-1.536 c-0.179-0.104-0.378-0.209-0.592-0.315c-0.216-0.105-0.447-0.197-0.694-0.282c-0.249-0.083-0.51-0.149-0.78-0.204 c-0.271-0.052-0.546-0.078-0.824-0.078c-0.399,0-0.778,0.057-1.135,0.17c-0.358,0.112-0.672,0.28-0.942,0.503 c-0.271,0.221-0.487,0.493-0.645,0.818c-0.158,0.323-0.236,0.696-0.236,1.118c0,0.301,0.043,0.564,0.13,0.789 c0.085,0.227,0.217,0.425,0.394,0.6c0.179,0.173,0.401,0.325,0.673,0.457c0.271,0.132,0.592,0.254,0.96,0.368 c0.277,0.081,0.536,0.157,0.773,0.224c0.236,0.069,0.442,0.142,0.615,0.222c0.173,0.077,0.308,0.167,0.406,0.265 s0.146,0.222,0.146,0.372c0,0.398-0.327,0.6-0.981,0.6c-0.309,0-0.613-0.043-0.915-0.125c-0.302-0.083-0.575-0.176-0.817-0.282 c-0.245-0.105-0.451-0.211-0.617-0.315c-0.165-0.105-0.264-0.178-0.293-0.216l-0.813,1.616c0.234,0.158,0.488,0.297,0.764,0.418 c0.274,0.12,0.559,0.223,0.852,0.31c0.293,0.088,0.594,0.153,0.902,0.197c0.311,0.046,0.611,0.068,0.904,0.068 c0.385,0,0.756-0.043,1.118-0.13s0.682-0.227,0.96-0.418c0.278-0.193,0.501-0.443,0.672-0.757c0.169-0.313,0.255-0.695,0.255-1.146 c0-0.366-0.06-0.685-0.177-0.948S79.765,48.026,79.551,47.84z"/><path style="fill:#d4aa3c" d="M84.728,43.804l-2.924,8.018h1.897l0.609-1.796h2.495l0.62,1.796h1.897l-2.925-8.018H84.728z M84.604,48.75l0.96-2.833l0.938,2.833H84.604z"/><polygon style="fill:#d4aa3c" points="93.208,43.804 91.356,43.804 91.356,51.821 97.092,51.821 97.092,50.194 93.208,50.194"/><polygon style="fill:#d4aa3c" points="105.065,45.192 105.065,43.804 98.91,43.804 98.91,45.43 102.93,45.43 98.752,50.433 98.752,51.821 105.109,51.821 105.109,50.194 101.09,50.194"/><path style="fill:#d4aa3c" d="M112.642,47.712c0.384-0.175,0.671-0.431,0.864-0.769c0.191-0.338,0.288-0.7,0.288-1.084 c0-0.257-0.045-0.505-0.13-0.75c-0.087-0.245-0.21-0.465-0.368-0.655c-0.158-0.191-0.351-0.348-0.575-0.469 c-0.227-0.12-0.479-0.182-0.758-0.182h-4.46v8.018h3.907c0.369,0,0.72-0.042,1.051-0.13c0.33-0.086,0.62-0.214,0.868-0.385 c0.249-0.169,0.444-0.381,0.587-0.637c0.145-0.256,0.216-0.557,0.216-0.904c0-0.542-0.134-0.986-0.401-1.331 C113.463,48.087,113.102,47.848,112.642,47.712z M109.356,45.386h1.884c0.197,0,0.364,0.07,0.504,0.214 c0.139,0.143,0.208,0.347,0.208,0.61c0,0.286-0.078,0.496-0.236,0.631c-0.159,0.136-0.34,0.204-0.542,0.204h-1.817V45.386z M112.01,50.015c-0.158,0.158-0.358,0.237-0.6,0.237h-2.054v-1.751h2.133c0.219,0,0.399,0.088,0.542,0.261 c0.144,0.172,0.214,0.384,0.214,0.633C112.245,49.651,112.167,49.856,112.01,50.015z"/><path style="fill:#d4aa3c" d="M121.618,47.903c0,0.294-0.027,0.581-0.086,0.863c-0.056,0.282-0.151,0.533-0.288,0.752 c-0.135,0.218-0.312,0.393-0.528,0.524c-0.22,0.132-0.486,0.198-0.802,0.198c-0.317,0-0.582-0.064-0.797-0.193 c-0.216-0.128-0.39-0.301-0.526-0.518c-0.135-0.22-0.231-0.469-0.293-0.747c-0.059-0.278-0.091-0.571-0.091-0.88v-4.1h-1.851v4.1 c0,0.527,0.066,1.03,0.199,1.514c0.129,0.48,0.337,0.904,0.619,1.27c0.282,0.366,0.65,0.657,1.101,0.874 c0.452,0.22,0.997,0.329,1.639,0.329c0.616,0,1.148-0.104,1.597-0.312c0.447-0.206,0.816-0.49,1.106-0.853 c0.289-0.36,0.505-0.781,0.644-1.265c0.14-0.48,0.209-1,0.209-1.558v-4.1h-1.852V47.903z"/><path style="fill:#d4aa3c" d="M131.617,48.429c0.161-0.161,0.299-0.345,0.412-0.548s0.2-0.419,0.26-0.649s0.091-0.469,0.091-0.717 c0-0.33-0.067-0.659-0.198-0.981c-0.132-0.326-0.314-0.615-0.548-0.87c-0.232-0.256-0.509-0.464-0.83-0.622 c-0.319-0.158-0.668-0.237-1.044-0.237h-3.612v8.018h1.851v-2.585h1.209l1.535,2.585h2.089l-1.762-2.979 C131.273,48.728,131.456,48.591,131.617,48.429z M130.256,47.311c-0.157,0.207-0.346,0.311-0.564,0.311h-1.693V45.43h1.638 c0.21,0,0.406,0.1,0.587,0.294c0.18,0.196,0.271,0.461,0.271,0.791C130.493,46.838,130.414,47.103,130.256,47.311z"/><path style="fill:#d4aa3c" d="M138.906,48.977h1.558v0.247c-0.578,0.671-1.23,1.006-1.952,1.006c-0.316,0-0.606-0.061-0.864-0.182 c-0.26-0.118-0.484-0.287-0.672-0.501c-0.189-0.216-0.336-0.47-0.439-0.764c-0.106-0.293-0.16-0.612-0.16-0.96 c0-0.338,0.05-0.653,0.148-0.946c0.097-0.296,0.235-0.552,0.418-0.774c0.18-0.223,0.395-0.396,0.647-0.52 c0.253-0.125,0.533-0.187,0.842-0.187c0.399,0,0.77,0.101,1.112,0.299c0.343,0.199,0.605,0.479,0.785,0.842l1.378-1.038 c-0.278-0.542-0.696-0.969-1.253-1.283c-0.558-0.312-1.209-0.468-1.954-0.468c-0.564,0-1.092,0.105-1.582,0.315 c-0.488,0.212-0.912,0.498-1.271,0.858c-0.355,0.361-0.637,0.786-0.841,1.277c-0.202,0.488-0.304,1.008-0.304,1.558 c0,0.609,0.102,1.168,0.304,1.677c0.204,0.509,0.481,0.943,0.83,1.304c0.352,0.361,0.76,0.643,1.226,0.841 c0.466,0.201,0.964,0.301,1.491,0.301c0.796,0,1.502-0.282,2.11-0.849v0.791H142v-4.188h-3.094V48.977z"/></g></svg>